<?xml version="1.0" encoding="UTF-8"?>
<svg id="Layer_1" data-name="Layer 1" xmlns="http://www.w3.org/2000/svg" version="1.1" viewBox="0 0 512 512">
  <defs>
    <style>
      .cls-1 {
        fill: #000;
      }

      .cls-1, .cls-2 {
        stroke-width: 0px;
      }

      .cls-2 {
        fill: #f5c600;
      }
    </style>
  </defs>
  <rect class="cls-2" x="34.9" y="34.9" width="442.2" height="442.2" rx="100.6" ry="100.6"/>
  <g>
    <path class="cls-1" d="M260.8,90.4c-1.5-4.6-8-4.6-9.5,0-12.4,38.1-33.6,72.1-61.1,99.7-27.6,27.6-61.6,48.7-99.7,61.1-4.6,1.5-4.6,8,0,9.5,0,0,.2,0,.2,0,17.7,5.8,34.6,13.5,50.3,22.8,18,10.7,34.5,23.5,49.1,38.2,27.6,27.6,48.7,61.6,61.1,99.7s8,4.6,9.5,0c12.4-38.1,33.6-72.1,61.1-99.7,14.7-14.7,31.2-27.5,49.1-38.2,15.7-9.4,32.6-17,50.3-22.8,0,0,.2,0,.2,0,4.6-1.5,4.6-8,0-9.5-76.2-24.8-136-84.6-160.8-160.8ZM260.3,180c7.8,13,17,25,27.3,35.9,3.1,3.3.5,8.7-4,8.4-9.1-.6-18.3-1-27.6-1s-18.5.3-27.6,1-7.1-5.1-4-8.4c10.3-10.9,19.5-23,27.3-35.9,1.9-3.2,6.6-3.2,8.6,0ZM251.7,332c-12.9-21.3-29.4-40.1-48.7-55.6-3.4-2.7-1.9-8.2,2.4-8.9,16.5-2.5,33.4-3.7,50.5-3.7s34,1.3,50.5,3.7c4.3.6,5.8,6.1,2.4,8.9-19.3,15.5-35.8,34.3-48.7,55.6-1.9,3.2-6.6,3.2-8.6,0Z"/>
    <path class="cls-1" d="M253.9,300.3c-3.5-5.8-7.6-11.2-12.2-16.2-1.5-1.6-.4-4.2,1.8-4.2h12.5s12.5,0,12.5,0c2.2,0,3.3,2.6,1.8,4.2-4.6,5-8.7,10.4-12.2,16.2-1,1.6-3.3,1.6-4.2,0Z"/>
  </g>
</svg>