<?xml version="1.0" encoding="UTF-8"?>
<svg id="Layer_1" data-name="Layer 1" xmlns="http://www.w3.org/2000/svg" version="1.1" viewBox="0 0 512 512">
  <defs>
    <style>
      .cls-1 {
        fill: #fccc00;
        stroke-width: 0px;
      }
    </style>
  </defs>
  <path class="cls-1" d="M263.2,5.3c-2.3-7-12.2-7-14.5,0-18.8,57.7-50.8,109.2-92.6,150.9C114.4,198,63,230,5.3,248.8c-7,2.3-7,12.2,0,14.4.1,0,.2,0,.3.1,26.9,8.8,52.4,20.4,76.2,34.6,27.2,16.2,52.2,35.6,74.4,57.9,41.8,41.8,73.8,93.2,92.6,150.9,2.3,7,12.2,7,14.5,0,18.8-57.7,50.8-109.2,92.6-150.9,22.2-22.2,47.2-41.7,74.4-57.9,23.8-14.2,49.3-25.8,76.2-34.6.1,0,.2,0,.3-.1,7-2.3,7-12.2,0-14.4-115.4-37.6-205.9-128.1-243.5-243.5ZM262.5,140.9c11.8,19.6,25.7,37.9,41.3,54.4,4.7,5,.8,13.2-6,12.7-13.8-1-27.8-1.5-41.8-1.5s-27.9.5-41.8,1.5-10.7-7.7-6-12.7c15.6-16.5,29.5-34.8,41.3-54.4,2.9-4.9,10-4.9,13,0ZM249.5,371.1c-19.5-32.3-44.5-60.8-73.7-84.2-5.2-4.1-2.9-12.4,3.7-13.4,25-3.7,50.5-5.6,76.5-5.6s51.5,1.9,76.5,5.6c6.6,1,8.8,9.3,3.7,13.4-29.2,23.4-54.2,51.9-73.7,84.2-2.9,4.9-10,4.9-13,0Z"/>
  <path class="cls-1" d="M252.8,323.1c-5.3-8.8-11.5-17-18.5-24.5-2.2-2.4-.6-6.4,2.8-6.4h18.9s18.9,0,18.9,0c3.3,0,5,3.9,2.8,6.4-7,7.5-13.2,15.7-18.5,24.5-1.5,2.4-5,2.4-6.4,0Z"/>
</svg>